<svg id="ewgcft8wg1go1" xmlns="http://www.w3.org/2000/svg" xmlns:xlink="http://www.w3.org/1999/xlink" viewBox="0 0 350 262" shape-rendering="geometricPrecision" text-rendering="geometricPrecision" width="350" height="262"><g id="ewgcft8wg1go2"><g id="ewgcft8wg1go3"><g id="ewgcft8wg1go4"><rect id="ewgcft8wg1go5" width="350" height="1" rx="0" ry="0" transform="matrix(1 0 0 1 0 229.66700000000000)" fill="rgb(216,220,231)" stroke="none" stroke-width="1"/><rect id="ewgcft8wg1go6" width="38.038000" height="1" rx="0" ry="0" transform="matrix(1 0 0 1 36.15500000000000 237.96899999999999)" fill="rgb(216,220,231)" stroke="none" stroke-width="1"/><rect id="ewgcft8wg1go7" width="14.322000" height="1" rx="0" ry="0" transform="matrix(1 0 0 1 161.37799999999999 234.16700000000000)" fill="rgb(216,220,231)" stroke="none" stroke-width="1"/><rect id="ewgcft8wg1go8" width="20.958000" height="1" rx="0" ry="0" transform="matrix(1 0 0 1 105.93800000000000 234.16700000000000)" fill="rgb(216,220,231)" stroke="none" stroke-width="1"/><rect id="ewgcft8wg1go9" width="44.338000" height="1" rx="0" ry="0" transform="matrix(1 0 0 1 255.89900000000000 236.18400000000000)" fill="rgb(216,220,231)" stroke="none" stroke-width="1"/><rect id="ewgcft8wg1go10" width="10.003000" height="1" rx="0" ry="0" transform="matrix(1 0 0 1 157.45099999999999 236.18400000000000)" fill="rgb(216,220,231)" stroke="none" stroke-width="1"/><rect id="ewgcft8wg1go11" width="9.331000" height="1" rx="0" ry="0" transform="matrix(1 0 0 1 80.96899999999999 237.96899999999999)" fill="rgb(216,220,231)" stroke="none" stroke-width="1"/><rect id="ewgcft8wg1go12" width="5.957000" height="1" rx="0" ry="0" transform="matrix(1 0 0 1 305.95600000000002 236.18400000000000)" fill="rgb(216,220,231)" stroke="none" stroke-width="1"/><path id="ewgcft8wg1go13" d="M165.900000,198.446500L30.737000,198.446500C28.532252,198.442639,26.747000,196.654251,26.747000,194.449500L26.747000,4.448500C26.747000,2.243749,28.532252,0.455361,30.737000,0.451500L165.900000,0.451500C168.107482,0.451500,169.897000,2.241018,169.897000,4.448500L169.897000,194.449500C169.897000,195.509570,169.475889,196.526223,168.726306,197.275806C167.976723,198.025389,166.960070,198.446500,165.900000,198.446500ZM30.737000,0.626500C28.628902,0.630361,26.922000,2.340398,26.922000,4.448500L26.922000,194.449500C26.922000,196.557602,28.628902,198.267639,30.737000,198.271500L165.900000,198.271500C168.009234,198.267648,169.718148,196.558734,169.722000,194.449500L169.722000,4.448500C169.718148,2.339266,168.009234,0.630352,165.900000,0.626500L30.737000,0.626500Z" fill="rgb(199,205,219)" stroke="none" stroke-width="1"/><path id="ewgcft8wg1go14" d="M317.317000,198.446500L182.147000,198.446500C179.941116,198.442647,178.153853,196.655384,178.150000,194.449500L178.150000,4.448500C178.153853,2.242616,179.941116,0.455353,182.147000,0.451500L317.317000,0.451500C319.519013,0.459213,321.300000,2.246474,321.300000,4.448500L321.300000,194.449500C321.300000,196.651526,319.519013,198.438787,317.317000,198.446500ZM182.147000,0.626500C180.037766,0.630352,178.328852,2.339266,178.325000,4.448500L178.325000,194.449500C178.328852,196.558734,180.037766,198.267648,182.147000,198.271500L317.317000,198.271500C319.426234,198.267648,321.135148,196.558734,321.139000,194.449500L321.139000,4.448500C321.135148,2.339266,319.426234,0.630352,317.317000,0.626500L182.147000,0.626500Z" fill="rgb(199,205,219)" stroke="none" stroke-width="1"/><rect id="ewgcft8wg1go15" width="156.023000" height="90.692000" rx="0" ry="0" transform="matrix(1 0 0 1 132.48900000000000 21.87850000000000)" fill="rgb(230,230,230)" stroke="none" stroke-width="1"/><rect id="ewgcft8wg1go16" width="156.023000" height="90.692000" rx="0" ry="0" transform="matrix(1 0 0 1 134.59600000000000 21.87850000000000)" fill="rgb(241,242,246)" stroke="none" stroke-width="1"/><rect id="ewgcft8wg1go17" width="82.180000" height="148.449000" rx="0" ry="0" transform="matrix(0 1 -1 0 286.83199999999999 26.13499999999999)" fill="rgb(255,255,255)" stroke="none" stroke-width="1"/><rect id="ewgcft8wg1go18" width="82.180000" height="1.596000" rx="0" ry="0" transform="matrix(0 1 -1 0 286.83150000000001 26.13499999999999)" fill="rgb(216,220,231)" stroke="none" stroke-width="1"/><rect id="ewgcft8wg1go19" width="152.894000" height="5.712000" rx="0" ry="0" transform="matrix(1 0 0 1 136.16399999999999 82.77150000000000)" fill="rgb(241,242,246)" stroke="none" stroke-width="1"/><rect id="ewgcft8wg1go20" width="25.620000" height="56.805000" rx="0" ry="0" transform="matrix(1 0 0 1 151.47999999999999 169.26400000000001)" fill="rgb(216,220,231)" stroke="none" stroke-width="1"/><rect id="ewgcft8wg1go21" width="112.784000" height="3.598000" rx="0" ry="0" transform="matrix(1 0 0 1 156.39400000000001 226.06100000000001)" fill="rgb(216,220,231)" stroke="none" stroke-width="1"/><rect id="ewgcft8wg1go22" width="97.006000" height="56.805000" rx="0" ry="0" transform="matrix(-1 0 -0 -1 274.09899999999999 226.06100000000001)" fill="rgb(241,242,246)" stroke="none" stroke-width="1"/><rect id="ewgcft8wg1go23" width="76.860000" height="18.627000" rx="0" ry="0" transform="matrix(-1 0 -0 -1 264.03300000000002 194.88300000000001)" fill="rgb(216,220,231)" stroke="none" stroke-width="1"/><rect id="ewgcft8wg1go24" width="76.860000" height="18.627000" rx="0" ry="0" transform="matrix(-1 0 -0 -1 264.03300000000002 219.07500000000002)" fill="rgb(216,220,231)" stroke="none" stroke-width="1"/><rect id="ewgcft8wg1go25" width="25.298000" height="2.555000" rx="1.127000" ry="0" transform="matrix(1 0 0 1 212.95400000000001 184.29200000000000)" fill="rgb(245,245,245)" stroke="none" stroke-width="1"/><rect id="ewgcft8wg1go26" width="25.298000" height="2.555000" rx="1.127000" ry="0" transform="matrix(1 0 0 1 212.95400000000001 208.47700000000000)" fill="rgb(245,245,245)" stroke="none" stroke-width="1"/><polygon id="ewgcft8wg1go27" points="100.366000,229.666500 45.787000,229.666500 38.262000,48.590500 92.841000,48.590500" fill="rgb(216,220,231)" stroke="none" stroke-width="1"/><polygon id="ewgcft8wg1go28" points="108.269000,229.666500 47.187000,229.666500 39.662000,48.590500 100.744000,48.590500" fill="rgb(241,242,246)" stroke="none" stroke-width="1"/><polygon id="ewgcft8wg1go29" points="53.221000,223.366500 46.221000,54.890500 94.703000,54.890500 101.710000,223.366500" fill="rgb(255,255,255)" stroke="none" stroke-width="1"/><ellipse id="ewgcft8wg1go30" rx="135.723000" ry="7.924000" transform="matrix(1 0 0 1 175 253.35499999999999)" opacity="0.694638" fill="rgb(229,235,243)" fill-rule="evenodd" stroke="none" stroke-width="1"/><polygon id="ewgcft8wg1go31" points="246.694000,115.657500 249.669000,120.200500 254.093000,119.290500 250.754000,113.634500" fill="rgb(249,182,168)" stroke="none" stroke-width="1"/><path id="ewgcft8wg1go32" d="M255.129000,76.660500C255.759000,77.423500,256.284000,78.102500,256.823000,78.844500C257.362000,79.586500,257.880000,80.300500,258.391000,81.042500C259.413000,82.519500,260.386000,84.031500,261.296000,85.599500C262.206000,87.167500,263.088000,88.756500,263.858000,90.429500C264.271000,91.248500,264.621000,92.116500,264.999000,92.956500C265.377000,93.796500,265.699000,94.692500,265.972000,95.609500L266.196000,96.309500L266.308000,96.652500C266.371000,96.862500,266.434000,97.079500,266.476000,97.275500C266.630039,98.004439,266.681869,98.751271,266.630000,99.494500C266.537521,100.655207,266.285482,101.797627,265.881000,102.889500C265.197308,104.707574,264.319568,106.446625,263.263000,108.076500C261.296719,111.107989,259.016097,113.923572,256.459000,116.476500L253.400000,114.089500C255.083558,111.217329,256.620853,108.261891,258.006000,105.234500C258.644022,103.854252,259.152537,102.417755,259.525000,100.943500C259.664763,100.392440,259.728354,99.824827,259.714000,99.256500C259.713377,99.135700,259.687132,99.016408,259.637000,98.906500C259.637000,98.906500,259.637000,98.906500,259.637000,98.906500L259.525000,98.640500L259.294000,98.101500C257.981852,95.159721,256.436945,92.327390,254.674000,89.631500C253.792000,88.231500,252.861000,86.873500,251.923000,85.515500C250.985000,84.157500,249.963000,82.785500,249.039000,81.546500L255.129000,76.660500Z" fill="rgb(249,182,168)" stroke="none" stroke-width="1"/><path id="ewgcft8wg1go33" d="M253.400000,73.251500C258.223000,74.357500,263.753000,87.496500,263.753000,87.496500L254.100000,94.097500C251.690120,90.644287,249.551068,87.009772,247.702000,83.226500C244.839000,77.213500,248.500000,72.082500,253.400000,73.251500Z" fill="rgb(64,123,255)" stroke="none" stroke-width="1"/><path id="ewgcft8wg1go34" d="M253.400000,73.251500C258.223000,74.357500,263.753000,87.496500,263.753000,87.496500L254.100000,94.097500C251.690120,90.644287,249.551068,87.009772,247.702000,83.226500C244.839000,77.213500,248.500000,72.082500,253.400000,73.251500Z" opacity="0.8" fill="rgb(0,212,183)" stroke="none" stroke-width="1"/><path id="ewgcft8wg1go35" d="M249.970000,81.595500L254.548000,93.782500L254.093000,94.097500C254.093000,94.097500,252.112000,91.297500,249.970000,87.566500L249.970000,81.595500Z" fill="rgb(12,194,197)" stroke="none" stroke-width="1"/><path id="ewgcft8wg1go36" d="M249.970000,81.595500L254.548000,93.782500L254.093000,94.097500C254.093000,94.097500,252.112000,91.297500,249.970000,87.566500L249.970000,81.595500Z" opacity="0.6" fill="rgb(255,255,255)" stroke="none" stroke-width="1"/><polygon id="ewgcft8wg1go37" points="237.748000,248.734500 232.603000,248.734500 232.092000,236.827500 237.237000,236.827500" fill="rgb(159,91,83)" stroke="none" stroke-width="1"/><polygon id="ewgcft8wg1go38" points="268.625000,248.734500 263.480000,248.734500 260.897000,236.827500 266.035000,236.827500" fill="rgb(159,91,83)" stroke="none" stroke-width="1"/><polygon id="ewgcft8wg1go39" points="232.092000,236.827500 232.358000,242.966500 237.503000,242.966500 237.237000,236.827500" fill="rgb(138,71,67)" stroke="none" stroke-width="1"/><polygon id="ewgcft8wg1go40" points="266.042000,236.827500 260.897000,236.827500 262.227000,242.966500 267.372000,242.966500" fill="rgb(138,71,67)" stroke="none" stroke-width="1"/><path id="ewgcft8wg1go41" d="M234.066000,117.925500C234.066000,117.925500,239.904000,157.251500,243.103000,171.951500C246.603000,188.051500,259.833000,241.776500,259.833000,241.776500L269.255000,241.776500C269.255000,241.776500,260.533000,189.374500,258.531000,173.414500C256.361000,156.089500,251.818000,117.925500,251.818000,117.925500L234.066000,117.925500Z" fill="rgb(58,64,90)" stroke="none" stroke-width="1"/><path id="ewgcft8wg1go42" d="M234.066000,117.925500C234.066000,117.925500,239.904000,157.251500,243.103000,171.951500C246.603000,188.051500,259.833000,241.776500,259.833000,241.776500L269.255000,241.776500C269.255000,241.776500,260.533000,189.374500,258.531000,173.414500C256.361000,156.089500,251.818000,117.925500,251.818000,117.925500L234.066000,117.925500Z" opacity="0.0532459" fill="rgb(0,0,0)" stroke="none" stroke-width="1"/><path id="ewgcft8wg1go43" d="M237.755000,131.932500C244.503000,133.255500,243.789000,158.420500,242.977000,171.363500C241.031000,162.214500,238.182000,144.609500,236.236000,132.114500C236.706802,131.882516,237.242720,131.818304,237.755000,131.932500Z" opacity="0.4" fill="rgb(0,0,0)" stroke="none" stroke-width="1"/><path id="ewgcft8wg1go44" d="M224.308000,117.925500C224.308000,117.925500,223.608000,156.376500,224.161000,172.056500C224.742000,188.373500,230.461000,241.776500,230.461000,241.776500L239.169000,241.776500C239.169000,241.776500,239.491000,189.325500,239.869000,173.302500C240.289000,155.802500,242.396000,117.925500,242.396000,117.925500L224.308000,117.925500Z" fill="rgb(58,64,90)" stroke="none" stroke-width="1"/><path id="ewgcft8wg1go45" d="M224.308000,117.925500C224.308000,117.925500,223.608000,156.376500,224.161000,172.056500C224.742000,188.373500,230.461000,241.776500,230.461000,241.776500L239.169000,241.776500C239.169000,241.776500,239.491000,189.325500,239.869000,173.302500C240.289000,155.802500,242.396000,117.925500,242.396000,117.925500L224.308000,117.925500Z" opacity="0" fill="rgb(0,0,0)" stroke="none" stroke-width="1"/><path id="ewgcft8wg1go46" d="M254.513000,112.983500L250.754000,113.634500L254.093000,119.290500C254.093000,119.290500,256.711000,118.030500,257.187000,115.587500L254.513000,112.983500Z" fill="rgb(249,182,168)" stroke="none" stroke-width="1"/><path id="ewgcft8wg1go47" d="M243.061000,58.887500C242.319000,62.646500,241.584000,69.541500,244.216000,72.054500C244.216000,72.054500,243.187000,75.869500,236.194000,75.869500C228.494000,75.869500,232.526000,72.054500,232.526000,72.054500C236.726000,71.053500,236.614000,67.938500,235.879000,65.012500L243.061000,58.887500Z" fill="rgb(249,182,168)" stroke="none" stroke-width="1"/><path id="ewgcft8wg1go48" d="M245.224000,73.363500C245.777000,72.152500,246.379000,70.773500,245.126000,70.339500C243.726000,69.863500,236.187000,69.373500,233.583000,70.269500C232.889165,70.461815,232.301132,70.923766,231.950022,71.552346C231.598911,72.180926,231.513920,72.923865,231.714000,73.615500L245.224000,73.363500Z" fill="rgb(8,175,178)" stroke="none" stroke-width="1"/><path id="ewgcft8wg1go49" d="M261.415000,249.000500C260.974880,249.057010,260.530597,248.933318,260.183000,248.657500C260.054661,248.487688,260.054661,248.253312,260.183000,248.083500C260.260974,247.937164,260.399096,247.832294,260.561000,247.796500C261.317000,247.621500,262.731000,248.594500,262.794000,248.636500C262.833767,248.661887,262.853361,248.709472,262.843000,248.755500C262.835627,248.803734,262.799556,248.842579,262.752000,248.853500C262.312572,248.948335,261.864535,248.997596,261.415000,249.000500L261.415000,249.000500ZM260.778000,248.020500C260.726924,248.013224,260.675076,248.013224,260.624000,248.020500C260.529730,248.039629,260.448179,248.098244,260.400000,248.181500C260.288000,248.384500,260.358000,248.468500,260.400000,248.496500C260.617000,248.783500,261.667000,248.790500,262.437000,248.664500C261.939088,248.328528,261.372185,248.108464,260.778000,248.020500L260.778000,248.020500Z" fill="rgb(12,194,197)" stroke="none" stroke-width="1"/><path id="ewgcft8wg1go50" d="M262.731000,248.853500C262.712995,248.860528,262.693005,248.860528,262.675000,248.853500C262.143000,248.566500,261.114000,247.453500,261.219000,246.865500C261.261086,246.682474,261.423206,246.552200,261.611000,246.550500C261.797320,246.530427,261.983908,246.585899,262.129000,246.704500C262.724000,247.194500,262.829000,248.678500,262.829000,248.741500C262.834896,248.786756,262.812742,248.831063,262.773000,248.853500C262.759192,248.856775,262.744808,248.856775,262.731000,248.853500ZM261.695000,246.753500L261.639000,246.753500C261.478000,246.753500,261.464000,246.844500,261.457000,246.879500C261.394000,247.215500,262.052000,248.069500,262.577000,248.468500C262.541620,247.883757,262.331948,247.323005,261.975000,246.858500C261.893684,246.799980,261.795100,246.770405,261.695000,246.774500L261.695000,246.753500Z" fill="rgb(12,194,197)" stroke="none" stroke-width="1"/><path id="ewgcft8wg1go51" d="M230.538000,249.000500C229.880000,249.000500,229.243000,248.909500,229.026000,248.615500C228.914479,248.453139,228.914479,248.238861,229.026000,248.076500C229.110412,247.934234,229.249647,247.832972,229.411000,247.796500C230.258000,247.565500,232.064000,248.587500,232.141000,248.629500C232.183030,248.656654,232.205009,248.706106,232.197000,248.755500C232.190894,248.806883,232.150383,248.847394,232.099000,248.853500C231.584292,248.950381,231.061746,248.999589,230.538000,249.000500ZM229.719000,247.999500C229.642191,247.991827,229.564809,247.991827,229.488000,247.999500C229.388881,248.024564,229.303477,248.087362,229.250000,248.174500C229.166000,248.321500,229.194000,248.398500,229.250000,248.440500C229.488000,248.762500,230.783000,248.783500,231.749000,248.643500C231.120663,248.298837,230.431114,248.080083,229.719000,247.999500L229.719000,247.999500Z" fill="rgb(12,194,197)" stroke="none" stroke-width="1"/><path id="ewgcft8wg1go52" d="M232.092000,248.853500L232.043000,248.853500C231.420000,248.573500,230.195000,247.453500,230.286000,246.879500C230.286000,246.746500,230.405000,246.578500,230.741000,246.543500C230.992752,246.506143,231.248294,246.580250,231.441000,246.746500C232.099000,247.285500,232.232000,248.671500,232.239000,248.727500C232.246278,248.771242,232.227065,248.815158,232.190000,248.839500C232.160917,248.858178,232.125150,248.863287,232.092000,248.853500ZM230.839000,246.753500L230.762000,246.753500C230.545000,246.753500,230.531000,246.865500,230.524000,246.893500C230.468000,247.243500,231.308000,248.118500,231.924000,248.496500C231.860331,247.907262,231.615804,247.352185,231.224000,246.907500C231.113682,246.822225,230.978431,246.775502,230.839000,246.774500L230.839000,246.753500Z" fill="rgb(12,194,197)" stroke="none" stroke-width="1"/><path id="ewgcft8wg1go53" d="M263.116000,248.139490L268.891000,248.139490C269.101199,248.140294,269.283494,248.284973,269.332000,248.489500L270.347000,253.060500C270.396438,253.287025,270.339197,253.523708,270.191708,253.702607C270.044219,253.881505,269.822795,253.982832,269.591000,253.977500C267.575000,253.942500,266.595000,253.823500,264.054000,253.823500C262.493000,253.823500,259.273000,253.984500,257.110000,253.984500C254.947000,253.984500,254.674000,251.849500,255.556000,251.660500C259.518000,250.792500,261.009000,249.595500,262.283000,248.454500C262.512380,248.250467,262.809009,248.138296,263.116000,248.139490L263.116000,248.139490Z" fill="rgb(127,157,153)" stroke="none" stroke-width="1"/><path id="ewgcft8wg1go54" d="M232.638000,248.139500L238.238000,248.139500C238.448199,248.140294,238.630494,248.284973,238.679000,248.489500L239.694000,253.060500C239.745691,253.284945,239.691245,253.520692,239.546367,253.699739C239.401489,253.878787,239.182290,253.981223,238.952000,253.977500C236.929000,253.942500,234.003000,253.823500,231.455000,253.823500C228.480000,253.823500,225.904000,253.984500,222.411000,253.984500C220.311000,253.984500,219.716000,251.849500,220.598000,251.660500C224.623000,250.778500,227.906000,250.687500,231.385000,248.538500C231.757559,248.291825,232.191404,248.153673,232.638000,248.139500L232.638000,248.139500Z" fill="rgb(127,157,153)" stroke="none" stroke-width="1"/><path id="ewgcft8wg1go55" d="M225.295000,83.751500C223.258000,86.754500,221.151000,89.568500,218.876000,92.354500C216.601836,95.165250,214.171328,97.845819,211.596000,100.383500L210.588000,101.335500L210.329000,101.573500L210.154000,101.741500L209.895000,101.965500C209.562507,102.227491,209.208976,102.461618,208.838000,102.665500C207.656319,103.287055,206.355795,103.649770,205.023000,103.729500C202.988984,103.852645,200.947797,103.685296,198.961000,103.232500C195.363029,102.432183,191.873374,101.205516,188.566000,99.578500L189.847000,95.938500C193.127910,96.587631,196.444902,97.038779,199.780000,97.289500C201.245002,97.405233,202.718610,97.344126,204.169000,97.107500C204.585629,97.045177,204.982826,96.889648,205.331000,96.652500C205.331000,96.652500,205.331000,96.610500,205.331000,96.610500L205.331000,96.610500C205.331000,96.610500,205.331000,96.610500,205.331000,96.610500L205.380000,96.554500L205.590000,96.330500L206.416000,95.413500C208.607000,92.921500,210.728000,90.268500,212.786000,87.545500C214.844000,84.822500,216.902000,82.043500,218.869000,79.327500L225.295000,83.751500Z" fill="rgb(249,182,168)" stroke="none" stroke-width="1"/><path id="ewgcft8wg1go56" d="M227.668000,84.542500C226.958319,88.897556,225.081047,92.978687,222.236000,96.351500C222.124000,93.887500,222.082000,91.675500,222.089000,89.694500L227.668000,84.542500Z" fill="rgb(190,211,252)" stroke="none" stroke-width="1"/><path id="ewgcft8wg1go57" d="M243.502000,53.224500C243.194000,58.320500,243.271000,61.316500,240.702000,63.934500C236.831000,67.861500,230.545000,65.530500,229.327000,60.434500C228.235000,55.856500,228.928000,48.296500,233.919000,46.266500C236.151065,45.349294,238.698992,45.654102,240.651718,47.071932C242.604443,48.489762,243.683103,50.818137,243.502000,53.224500Z" fill="rgb(249,182,168)" stroke="none" stroke-width="1"/><path id="ewgcft8wg1go58" d="M233.604000,49.836500C233.646000,55.828500,235.592000,63.136500,241.388000,62.667500C245.238000,62.331500,248.164000,55.303500,248.563000,52.335500C249.172000,47.785500,249.263000,46.917500,246.701000,46.392500C247.821000,45.783500,248.227000,42.892500,245.609000,42.192500C241.969000,41.233500,235.109000,40.295500,237.265000,38.076500C232.967000,38.853500,231.889000,40.575500,232.673000,42.668500C230.160000,42.472500,228.613000,41.156500,228.690000,39.168500C224.525000,40.848500,221.823000,50.389500,233.604000,49.836500Z" fill="rgb(38,50,56)" stroke="none" stroke-width="1"/><path id="ewgcft8wg1go59" d="M236.600000,54.708500C236.314153,55.943422,235.630414,57.050194,234.654000,57.858500C233.359000,58.908500,232.323000,57.970500,232.351000,56.458500C232.351000,55.058500,233.093000,52.902500,234.549000,52.440500C236.005000,51.978500,236.957000,53.210500,236.600000,54.708500Z" fill="rgb(249,182,168)" stroke="none" stroke-width="1"/><path id="ewgcft8wg1go60" d="M250.600000,47.435500C249.208238,46.549262,247.463903,46.422976,245.959000,47.099500C245.959000,47.099500,248.871000,43.151500,250.600000,47.435500Z" fill="rgb(38,50,56)" stroke="none" stroke-width="1"/><path id="ewgcft8wg1go61" d="M258.300000,238.311500C258.258000,238.311500,259.273000,241.923500,259.273000,241.923500L269.871000,241.923500L269.675000,238.696500L258.300000,238.311500Z" fill="rgb(12,194,197)" stroke="none" stroke-width="1"/><path id="ewgcft8wg1go62" d="M228.767000,238.311500C228.725000,238.311500,229.257000,241.923500,229.257000,241.923500L239.855000,241.923500L240.142000,238.696500L228.767000,238.311500Z" fill="rgb(12,194,197)" stroke="none" stroke-width="1"/><path id="ewgcft8wg1go63" d="M232.253000,235.518819C232.231395,235.520472,232.209961,235.513239,232.193969,235.498580C232.177976,235.483920,232.168910,235.463194,232.169000,235.441500C230.629000,220.664500,227.010000,184.894500,226.569000,172.063500C226.100000,158.966500,226.527000,129.580500,226.667000,120.886500C226.656392,120.849363,226.670381,120.809575,226.701897,120.787249C226.733412,120.764924,226.775588,120.764924,226.807103,120.787249C226.838619,120.809575,226.852608,120.849363,226.842000,120.886500C226.702000,129.580500,226.275000,158.959500,226.744000,172.056500C227.199000,184.880500,230.818000,220.643500,232.344000,235.427500C232.345962,235.450964,232.337986,235.474174,232.322016,235.491476C232.306045,235.508778,232.283546,235.518819,232.260000,235.518819L232.253000,235.518819Z" fill="rgb(64,123,255)" stroke="none" stroke-width="1"/><path id="ewgcft8wg1go64" d="M232.253000,235.518819C232.231395,235.520472,232.209961,235.513239,232.193969,235.498580C232.177976,235.483920,232.168910,235.463194,232.169000,235.441500C230.629000,220.664500,227.010000,184.894500,226.569000,172.063500C226.100000,158.966500,226.527000,129.580500,226.667000,120.886500C226.656392,120.849363,226.670381,120.809575,226.701897,120.787249C226.733412,120.764924,226.775588,120.764924,226.807103,120.787249C226.838619,120.809575,226.852608,120.849363,226.842000,120.886500C226.702000,129.580500,226.275000,158.959500,226.744000,172.056500C227.199000,184.880500,230.818000,220.643500,232.344000,235.427500C232.345962,235.450964,232.337986,235.474174,232.322016,235.491476C232.306045,235.508778,232.283546,235.518819,232.260000,235.518819L232.253000,235.518819Z" opacity="0.3" fill="rgb(12,194,197)" stroke="none" stroke-width="1"/><path id="ewgcft8wg1go65" d="M230.041000,77.647500C230.741000,82.547500,221.123000,94.958500,221.123000,94.958500L211.484000,88.322500C211.484000,88.322500,214.158000,81.469500,218.659000,76.975500C223.797000,71.851500,229.299000,72.348500,230.041000,77.647500Z" fill="rgb(64,123,255)" stroke="none" stroke-width="1"/><path id="ewgcft8wg1go66" d="M230.041000,77.647500C230.741000,82.547500,221.123000,94.958500,221.123000,94.958500L211.484000,88.322500C211.484000,88.322500,214.158000,81.469500,218.659000,76.975500C223.797000,71.851500,229.299000,72.348500,230.041000,77.647500Z" opacity="0.8" fill="rgb(0,212,183)" stroke="none" stroke-width="1"/><path id="ewgcft8wg1go67" d="M224.616000,73.482500C224.616000,73.482500,219.142000,79.663500,224.308000,117.925500L251.818000,117.925500C252.007000,113.725500,249.354000,93.110500,253.421000,73.216500C250.380931,72.631096,247.306178,72.242952,244.216000,72.054500C240.322557,71.830337,236.419443,71.830337,232.526000,72.054500C229.856129,72.323498,227.211393,72.800954,224.616000,73.482500L224.616000,73.482500Z" fill="rgb(64,123,255)" stroke="none" stroke-width="1"/><path id="ewgcft8wg1go68" d="M224.616000,73.482500C224.616000,73.482500,219.142000,79.663500,224.308000,117.925500L251.818000,117.925500C252.007000,113.725500,249.354000,93.110500,253.421000,73.216500C250.380931,72.631096,247.306178,72.242952,244.216000,72.054500C240.322557,71.830337,236.419443,71.830337,232.526000,72.054500C229.856129,72.323498,227.211393,72.800954,224.616000,73.482500L224.616000,73.482500Z" opacity="0.8" fill="rgb(0,212,183)" stroke="none" stroke-width="1"/><rect id="ewgcft8wg1go69" width="35.700000" height="35.700000" rx="6.300000" ry="0" transform="matrix(1 0 0 1 108.50000000000000 73.25149999999999)" fill="rgb(185,241,233)" fill-rule="evenodd" stroke="none" stroke-width="1"/><rect id="ewgcft8wg1go70" width="35.700000" height="35.700000" rx="6.300000" ry="0" transform="matrix(1 0 0 1 108.50000000000000 23.55150000000000)" fill="rgb(0,212,183)" fill-rule="evenodd" stroke="none" stroke-width="1"/><path id="ewgcft8wg1go71" d="M136.569727,20.051500L140.140000,20.051500C144.315273,20.051500,147.700000,23.436227,147.700000,27.611500C147.700000,28.592168,147.700000,30.727670,147.700000,31.218004M147.700000,51.396324L147.700000,55.191500C147.700000,59.366773,144.315273,62.751500,140.140000,62.751500L138.271875,62.751500M117.211035,62.751500L112.560000,62.751500C108.384727,62.751500,105,59.366773,105,55.191500L105,51.900816M105,32.014391L105,27.611500C105,23.436227,108.384727,20.051500,112.560000,20.051500L115.675000,20.051500" fill="none" fill-rule="evenodd" stroke="rgb(0,212,183)" stroke-width="0.560000"/><rect id="ewgcft8wg1go72" width="35.700000" height="35.700000" rx="6.300000" ry="0" transform="matrix(1 0 0 1 108.50000000000000 122.95099999999999)" fill="rgb(185,241,233)" fill-rule="evenodd" stroke="none" stroke-width="1"/><rect id="ewgcft8wg1go73" width="35.700000" height="35.700000" rx="6.300000" ry="0" transform="matrix(1 0 0 1 108.50000000000000 172.65199999999999)" fill="rgb(185,241,233)" fill-rule="evenodd" stroke="none" stroke-width="1"/><path id="ewgcft8wg1go74" d="M190.540000,96.295500L186.767000,92.396500L182.742000,97.590500C182.742000,97.590500,185.808000,100.544500,189.455000,99.690500L190.540000,96.295500Z" fill="rgb(159,91,83)" stroke="none" stroke-width="1"/><polygon id="ewgcft8wg1go75" points="181.580000,90.247500 179.858000,95.693500 182.742000,97.590500 186.767000,92.396500" fill="rgb(159,91,83)" stroke="none" stroke-width="1"/><path id="ewgcft8wg1go76" d="M130.200000,90.548500C130.831557,88.672376,132.251955,87.166249,134.087892,86.425952C135.923829,85.685655,137.991687,85.785227,139.748000,86.698500L135.548000,84.514500C132.336095,82.870377,130.923230,79.036763,132.300000,75.701500C133.053270,73.982915,134.484806,72.653149,136.254178,72.028431C138.023551,71.403712,139.972662,71.539861,141.638000,72.404500L137.438000,70.220500C134.213769,68.591331,132.781854,64.758674,134.148000,61.414500C134.900975,59.692116,136.334947,58.359440,138.107783,57.734436C139.880618,57.109432,141.833323,57.248153,143.500000,58.117500L123.557000,47.687500C120.526119,46.172606,119.043127,42.681642,120.057000,39.448500C120.690212,37.571950,122.111950,36.065879,123.948939,35.325700C125.785929,34.585521,127.854663,34.685175,129.612000,35.598500L171.612000,57.557500L167.300000,39.854500C166.418618,36.165794,168.542673,32.424205,172.161759,31.290360C175.780845,30.156515,179.660098,32.017291,181.041000,35.549500L194.817000,71.340500C195.997068,74.397036,198.248748,76.919913,201.152000,78.438500L203.553000,79.691500C204.294814,80.080303,204.851731,80.747941,205.101171,81.547462C205.350611,82.346984,205.272129,83.212858,204.883000,83.954500L188.083000,116.056500C187.273162,117.600689,185.366651,118.198626,183.820000,117.393500L177.926000,114.306500C175.692360,113.164176,173.191565,112.646604,170.688000,112.808500C164.658261,113.136180,158.651650,111.832814,153.300000,109.035500L133.700000,98.787500C130.669119,97.272606,129.186127,93.781642,130.200000,90.548500L130.200000,90.548500Z" transform="matrix(1 0 0 1 -0.03961624000004 0.17386824000000)" fill="rgb(249,182,168)" stroke="rgb(227,168,155)" stroke-width="1.400000"/><rect id="ewgcft8wg1go77" width="35.700000" height="35.700000" rx="6.300000" ry="0" transform="matrix(1 0 0 1 58.80000000000000 73.25149999999999)" fill="rgb(185,241,233)" fill-rule="evenodd" stroke="none" stroke-width="1"/><rect id="ewgcft8wg1go78" width="35.700000" height="35.700000" rx="6.300000" ry="0" transform="matrix(1 0 0 1 58.80000000000000 23.55150000000000)" fill="rgb(185,241,233)" fill-rule="evenodd" stroke="none" stroke-width="1"/><rect id="ewgcft8wg1go79" width="35.700000" height="35.700000" rx="6.300000" ry="0" transform="matrix(1 0 0 1 58.80000000000000 122.95099999999999)" fill="rgb(185,241,233)" fill-rule="evenodd" stroke="none" stroke-width="1"/><rect id="ewgcft8wg1go80" width="35.700000" height="35.700000" rx="6.300000" ry="0" transform="matrix(1 0 0 1 58.80000000000000 172.65199999999999)" fill="rgb(185,241,233)" fill-rule="evenodd" stroke="none" stroke-width="1"/></g></g></g><script><![CDATA[!function(t,n){"object"==typeof exports&&"undefined"!=typeof module?module.exports=n():"function"==typeof define&&define.amd?define(n):(t=t||self).__SVGATOR_PLAYER__=n()}(this,(function(){"use strict";function t(n){return(t="function"==typeof Symbol&&"symbol"==typeof Symbol.iterator?function(t){return typeof t}:function(t){return t&&"function"==typeof Symbol&&t.constructor===Symbol&&t!==Symbol.prototype?"symbol":typeof t})(n)}function n(t,n){if(!(t instanceof n))throw new TypeError("Cannot call a class as a function")}function r(t,n){for(var r=0;r<n.length;r++){var e=n[r];e.enumerable=e.enumerable||!1,e.configurable=!0,"value"in e&&(e.writable=!0),Object.defineProperty(t,e.key,e)}}function e(t,n,e){return n&&r(t.prototype,n),e&&r(t,e),t}var i=1e-5,u=Math.abs;function o(t){return t}function a(t,n,r){var e=1-r;return 3*r*e*(t*e+n*r)+r*r*r}function l(){var t=arguments.length>0&&void 0!==arguments[0]?arguments[0]:0,n=arguments.length>1&&void 0!==arguments[1]?arguments[1]:0,r=arguments.length>2&&void 0!==arguments[2]?arguments[2]:1,e=arguments.length>3&&void 0!==arguments[3]?arguments[3]:1;return t<0||t>1||r<0||r>1?null:u(t-n)<=i&&u(r-e)<=i?o:function(o){if(o<=0)return t>0?o*n/t:0===n&&r>0?o*e/r:0;if(o>=1)return r<1?1+(o-1)*(e-1)/(r-1):1===r&&t<1?1+(o-1)*(n-1)/(t-1):1;for(var l,f=0,s=1;f<s;){var c=a(t,r,l=(f+s)/2);if(u(o-c)<i)break;c<o?f=l:s=l}return a(n,e,l)}}function f(){return 1}function s(t){return 1===t?1:0}function c(){var t=arguments.length>0&&void 0!==arguments[0]?arguments[0]:1,n=arguments.length>1&&void 0!==arguments[1]?arguments[1]:0;if(1===t){if(0===n)return s;if(1===n)return f}var r=1/t;return function(t){return t>=1?1:(t+=n*r)-t%r}}function v(t){var n=arguments.length>1&&void 0!==arguments[1]?arguments[1]:2;if(Number.isInteger(t))return t;var r=Math.pow(10,n);return Math.round(t*r)/r}var h=Math.PI/180;function y(t,n,r){return t>=.5?r:n}function d(t,n,r){return 0===t||n===r?n:t*(r-n)+n}function g(t,n,r){var e=d(t,n,r);return e<=0?0:e}function m(t,n,r){return 0===t?n:1===t?r:{x:d(t,n.x,r.x),y:d(t,n.y,r.y)}}function p(t,n,r){return 0===t?n:1===t?r:{x:g(t,n.x,r.x),y:g(t,n.y,r.y)}}function b(t,n,r){var e=function(t,n,r){return Math.round(d(t,n,r))}(t,n,r);return e<=0?0:e>=255?255:e}function w(t,n,r){return 0===t?n:1===t?r:{r:b(t,n.r,r.r),g:b(t,n.g,r.g),b:b(t,n.b,r.b),a:d(t,null==n.a?1:n.a,null==r.a?1:r.a)}}function A(t,n,r){if(0===t)return n;if(1===t)return r;var e=n.length;if(e!==r.length)return y(t,n,r);for(var i=[],u=0;u<e;u++)i.push(w(t,n[u],r[u]));return i}function x(t,n,r){var e=n.length;if(e!==r.length)return y(t,n,r);for(var i=new Array(e),u=0;u<e;u++)i[u]=d(t,n[u],r[u]);return i}function k(t,n){for(var r=[],e=0;e<t;e++)r.push(n);return r}function S(t,n){if(--n<=0)return t;var r=(t=Object.assign([],t)).length;do{for(var e=0;e<r;e++)t.push(t[e])}while(--n>0);return t}var _=6,M=/\.0+$/g;function I(t){return Number.isInteger(t)?t+"":t.toFixed(_).replace(M,"")}function E(t){var n=arguments.length>1&&void 0!==arguments[1]?arguments[1]:" ";return t&&t.length?t.map(I).join(n):""}function F(t){return I(t.x)+","+I(t.y)}function B(t){return t?null==t.a||t.a>=1?"rgb("+t.r+","+t.g+","+t.b+")":"rgba("+t.r+","+t.g+","+t.b+","+t.a+")":"transparent"}var j={f:null,i:p,u:function(t,n){return function(r){var e=n(r);t.setAttribute("rx",I(e.x)),t.setAttribute("ry",I(e.y))}}},q={f:null,i:function(t,n,r){return 0===t?n:1===t?r:{width:g(t,n.width,r.width),height:g(t,n.height,r.height)}},u:function(t,n){return function(r){var e=n(r);t.setAttribute("width",I(e.width)),t.setAttribute("height",I(e.height))}}},P=Math.sin,O=Math.cos,z=Math.acos,L=Math.asin,C=Math.tan,R=Math.atan2,T=Math.PI/180,V=180/Math.PI,D=Math.sqrt,N=function(){function t(){var r=arguments.length>0&&void 0!==arguments[0]?arguments[0]:1,e=arguments.length>1&&void 0!==arguments[1]?arguments[1]:0,i=arguments.length>2&&void 0!==arguments[2]?arguments[2]:0,u=arguments.length>3&&void 0!==arguments[3]?arguments[3]:1,o=arguments.length>4&&void 0!==arguments[4]?arguments[4]:0,a=arguments.length>5&&void 0!==arguments[5]?arguments[5]:0;n(this,t),this.m=[r,e,i,u,o,a],this.i=null,this.w=null,this.s=null}return e(t,[{key:"point",value:function(t,n){var r=this.m;return{x:r[0]*t+r[2]*n+r[4],y:r[1]*t+r[3]*n+r[5]}}},{key:"translateSelf",value:function(){var t=arguments.length>0&&void 0!==arguments[0]?arguments[0]:0,n=arguments.length>1&&void 0!==arguments[1]?arguments[1]:0;if(!t&&!n)return this;var r=this.m;return r[4]+=r[0]*t+r[2]*n,r[5]+=r[1]*t+r[3]*n,this.w=this.s=this.i=null,this}},{key:"rotateSelf",value:function(){var t=arguments.length>0&&void 0!==arguments[0]?arguments[0]:0;if(t%=360){var n=P(t*=T),r=O(t),e=this.m,i=e[0],u=e[1];e[0]=i*r+e[2]*n,e[1]=u*r+e[3]*n,e[2]=e[2]*r-i*n,e[3]=e[3]*r-u*n,this.w=this.s=this.i=null}return this}},{key:"scaleSelf",value:function(){var t=arguments.length>0&&void 0!==arguments[0]?arguments[0]:1,n=arguments.length>1&&void 0!==arguments[1]?arguments[1]:1;if(1!==t||1!==n){var r=this.m;r[0]*=t,r[1]*=t,r[2]*=n,r[3]*=n,this.w=this.s=this.i=null}return this}},{key:"skewSelf",value:function(t,n){if(n%=360,(t%=360)||n){var r=this.m,e=r[0],i=r[1],u=r[2],o=r[3];t&&(t=C(t*T),r[2]+=e*t,r[3]+=i*t),n&&(n=C(n*T),r[0]+=u*n,r[1]+=o*n),this.w=this.s=this.i=null}return this}},{key:"resetSelf",value:function(){var t=arguments.length>0&&void 0!==arguments[0]?arguments[0]:1,n=arguments.length>1&&void 0!==arguments[1]?arguments[1]:0,r=arguments.length>2&&void 0!==arguments[2]?arguments[2]:0,e=arguments.length>3&&void 0!==arguments[3]?arguments[3]:1,i=arguments.length>4&&void 0!==arguments[4]?arguments[4]:0,u=arguments.length>5&&void 0!==arguments[5]?arguments[5]:0,o=this.m;return o[0]=t,o[1]=n,o[2]=r,o[3]=e,o[4]=i,o[5]=u,this.w=this.s=this.i=null,this}},{key:"recomposeSelf",value:function(){var t=arguments.length>0&&void 0!==arguments[0]?arguments[0]:null,n=arguments.length>1&&void 0!==arguments[1]?arguments[1]:null,r=arguments.length>2&&void 0!==arguments[2]?arguments[2]:null,e=arguments.length>3&&void 0!==arguments[3]?arguments[3]:null,i=arguments.length>4&&void 0!==arguments[4]?arguments[4]:null;return this.isIdentity||this.resetSelf(),t&&(t.x||t.y)&&this.translateSelf(t.x,t.y),n&&this.rotateSelf(n),r&&(r.x&&this.skewSelf(r.x,0),r.y&&this.skewSelf(0,r.y)),!e||1===e.x&&1===e.y||this.scaleSelf(e.x,e.y),i&&(i.x||i.y)&&this.translateSelf(i.x,i.y),this}},{key:"decompose",value:function(){var t=arguments.length>0&&void 0!==arguments[0]?arguments[0]:0,n=arguments.length>1&&void 0!==arguments[1]?arguments[1]:0,r=this.m,e=r[0]*r[0]+r[1]*r[1],i=[[r[0],r[1]],[r[2],r[3]]],u=D(e);if(0===u)return{origin:{x:r[4],y:r[5]},translate:{x:t,y:n},scale:{x:0,y:0},skew:{x:0,y:0},rotate:0};i[0][0]/=u,i[0][1]/=u;var o=r[0]*r[3]-r[1]*r[2]<0;o&&(u=-u);var a=i[0][0]*i[1][0]+i[0][1]*i[1][1];i[1][0]-=i[0][0]*a,i[1][1]-=i[0][1]*a;var l=D(i[1][0]*i[1][0]+i[1][1]*i[1][1]);if(0===l)return{origin:{x:r[4],y:r[5]},translate:{x:t,y:n},scale:{x:u,y:0},skew:{x:0,y:0},rotate:0};i[1][0]/=l,i[1][1]/=l,a/=l;var f=0;return i[1][1]<0?(f=z(i[1][1])*V,i[0][1]<0&&(f=360-f)):f=L(i[0][1])*V,o&&(f=-f),a=R(a,D(i[0][0]*i[0][0]+i[0][1]*i[0][1]))*V,{origin:{x:r[4],y:r[5]},translate:{x:t,y:n},scale:{x:u,y:l},skew:{x:a,y:0},rotate:f}}},{key:"toString",value:function(){return null===this.s&&(this.s="matrix("+this.m.map($).join(" ")+")"),this.s}},{key:"determinant",get:function(){var t=this.m;return t[0]*t[3]-t[1]*t[2]}},{key:"isIdentity",get:function(){if(null===this.i){var t=this.m;this.i=1===t[0]&&0===t[1]&&0===t[2]&&1===t[3]&&0===t[4]&&0===t[5]}return this.i}}]),t}(),G=/\.0+$/;function $(t){return Number.isInteger(t)?t:t.toFixed(14).replace(G,"")}Object.freeze({M:2,L:2,Z:0,H:1,V:1,C:6,Q:4,T:2,S:4,A:7});function H(t,n,r){return t+(n-t)*r}function Q(t,n,r){var e=arguments.length>3&&void 0!==arguments[3]&&arguments[3],i={x:H(t.x,n.x,r),y:H(t.y,n.y,r)};return e&&(i.a=function(t,n){return Math.atan2(n.y-t.y,n.x-t.x)}(t,n)),i}function U(t,n,r,e){var i=1-e;return i*i*t+2*i*e*n+e*e*r}function Y(t,n,r,e){return 2*(1-e)*(n-t)+2*e*(r-n)}function Z(t,n,r,e){var i=arguments.length>4&&void 0!==arguments[4]&&arguments[4],u={x:U(t.x,n.x,r.x,e),y:U(t.y,n.y,r.y,e)};return i&&(u.a=function(t,n,r,e){return Math.atan2(Y(t.y,n.y,r.y,e),Y(t.x,n.x,r.x,e))}(t,n,r,e)),u}function J(t,n,r,e,i){var u=i*i;return i*u*(e-t+3*(n-r))+3*u*(t+r-2*n)+3*i*(n-t)+t}function K(t,n,r,e,i){var u=1-i;return 3*(u*u*(n-t)+2*u*i*(r-n)+i*i*(e-r))}function W(t,n,r,e,i){var u=arguments.length>5&&void 0!==arguments[5]&&arguments[5],o={x:J(t.x,n.x,r.x,e.x,i),y:J(t.y,n.y,r.y,e.y,i)};return u&&(o.a=function(t,n,r,e,i){return Math.atan2(K(t.y,n.y,r.y,e.y,i),K(t.x,n.x,r.x,e.x,i))}(t,n,r,e,i)),o}function X(t,n,r){var e,i=arguments.length>3&&void 0!==arguments[3]&&arguments[3];if(nt(n)){if(null!=(e=r).start&&!nt(e))return Z(n,r.start,r,t,i)}else if(nt(r)){if(n.end)return Z(n,n.end,r,t,i)}else{if(n.end)return r.start?W(n,n.end,r.start,r,t,i):Z(n,n.end,r,t,i);if(r.start)return Z(n,r.start,r,t,i)}return Q(n,r,t,i)}function tt(t,n,r){var e=X(t,n,r,!0);return e.a=function(t){return arguments.length>1&&void 0!==arguments[1]&&arguments[1]?t+Math.PI:t}(e.a)/h,e}function nt(t){return!t.type||"corner"===t.type}var rt=new N;var et={f:function(t){return t?t.join(" "):""},i:function(n,r,e){if(0===n)return r;if(1===n)return e;var i=r.length;if(i!==e.length)return y(n,r,e);for(var u,o=new Array(i),a=0;a<i;a++){if((u=t(r[a]))!==t(e[a]))return y(n,r,e);if("number"===u)o[a]=d(n,r[a],e[a]);else{if(r[a]!==e[a])return y(n,r,e);o[a]=r[a]}}return o}},it={f:null,i:x,u:function(t,n){return function(r){var e=n(r);t.setAttribute("x1",I(e[0])),t.setAttribute("y1",I(e[1])),t.setAttribute("x2",I(e[2])),t.setAttribute("y2",I(e[3]))}}},ut={f:I,i:d},ot={f:I,i:function(t,n,r){var e=d(t,n,r);return e<=0?0:e>=1?1:e}},at={f:E,i:function(t,n,r){var e,i,u,o=n.length,a=r.length;if(o!==a)if(0===o)n=k(o=a,0);else if(0===a)a=o,r=k(o,0);else{var l=(u=(e=o)*(i=a)/function(t,n){for(var r;n;)r=n,n=t%n,t=r;return t||1}(e,i))<0?-u:u;n=S(n,Math.floor(l/o)),r=S(r,Math.floor(l/a)),o=a=l}for(var f=[],s=0;s<o;s++)f.push(v(g(t,n[s],r[s]),6));return f}};function lt(t,n,r,e,i,u,o,a){return n=function(t,n,r){for(var e,i,u,o=t.length-1,a={},l=0;l<=o;l++)(e=t[l]).e&&(e.e=n(e.e)),e.v&&"g"===(i=e.v).t&&i.r&&(u=r.getElementById(i.r))&&(a[i.r]=u.querySelectorAll("stop"));return a}(t,e,a),function(e){var i,u=r(e,t,ft);return u?"c"===u.t?B(u.v):"g"===u.t?(n[u.r]&&function(t,n){for(var r=0,e=t.length;r<e;r++)t[r].setAttribute("stop-color",B(n[r]))}(n[u.r],u.v),(i=u.r)?"url(#"+i+")":"none"):"none":"none"}}function ft(t,n,r){if(0===t)return n;if(1===t)return r;if(n&&r){var e=n.t;if(e===r.t)switch(n.t){case"c":return{t:e,v:w(t,n.v,r.v)};case"g":if(n.r===r.r)return{t:e,v:A(t,n.v,r.v),r:n.r}}}return y(t,n,r)}var st={blur:p,brightness:g,contrast:g,"drop-shadow":function(t,n,r){return 0===t?n:1===t?r:{blur:p(t,n.blur,r.blur),offset:m(t,n.offset,r.offset),color:w(t,n.color,r.color)}},grayscale:g,"hue-rotate":d,invert:g,opacity:g,saturate:g,sepia:g};function ct(t,n,r){if(0===t)return n;if(1===t)return r;var e=n.length;if(e!==r.length)return y(t,n,r);for(var i,u=[],o=0;o<e;o++){if(n[o].type!==r[o].type)return n;if(!(i=st[n[o].type]))return y(t,n,r);u.push({type:n.type,value:i(t,n[o].value,r[o].value)})}return u}var vt={blur:function(t){return t?function(n){t.setAttribute("stdDeviation",F(n))}:null},brightness:function(t,n,r){return(t=yt(r,n))?function(n){n=I(n),t.map((function(t){return t.setAttribute("slope",n)}))}:null},contrast:function(t,n,r){return(t=yt(r,n))?function(n){var r=I((1-n)/2);n=I(n),t.map((function(t){t.setAttribute("slope",n),t.setAttribute("intercept",r)}))}:null},"drop-shadow":function(t,n,r){var e=r.getElementById(n+"-blur");if(!e)return null;var i=r.getElementById(n+"-offset");if(!i)return null;var u=r.getElementById(n+"-flood");return u?function(t){e.setAttribute("stdDeviation",F(t.blur)),i.setAttribute("dx",I(t.offset.x)),i.setAttribute("dy",I(t.offset.y)),u.setAttribute("flood-color",B(t.color))}:null},grayscale:function(t){return t?function(n){t.setAttribute("values",E(function(t){return[.2126+.7874*(t=1-t),.7152-.7152*t,.0722-.0722*t,0,0,.2126-.2126*t,.7152+.2848*t,.0722-.0722*t,0,0,.2126-.2126*t,.7152-.7152*t,.0722+.9278*t,0,0,0,0,0,1,0]}(n)))}:null},"hue-rotate":function(t){return t?function(n){return t.setAttribute("values",I(n))}:null},invert:function(t,n,r){return(t=yt(r,n))?function(n){n=I(n)+" "+I(1-n),t.map((function(t){return t.setAttribute("tableValues",n)}))}:null},opacity:function(t,n,r){return(t=r.getElementById(n+"-A"))?function(n){return t.setAttribute("tableValues","0 "+I(n))}:null},saturate:function(t){return t?function(n){return t.setAttribute("values",I(n))}:null},sepia:function(t){return t?function(n){return t.setAttribute("values",E(function(t){return[.393+.607*(t=1-t),.769-.769*t,.189-.189*t,0,0,.349-.349*t,.686+.314*t,.168-.168*t,0,0,.272-.272*t,.534-.534*t,.131+.869*t,0,0,0,0,0,1,0]}(n)))}:null}};var ht=["R","G","B"];function yt(t,n){var r=ht.map((function(r){return t.getElementById(n+"-"+r)||null}));return-1!==r.indexOf(null)?null:r}var dt={fill:lt,"fill-opacity":ot,stroke:lt,"stroke-opacity":ot,"stroke-width":ut,"stroke-dashoffset":{f:I,i:d},"stroke-dasharray":at,opacity:ot,transform:function(n,r,e,i){if(!(n=function(n,r){if(!n||"object"!==t(n))return null;var e=!1;for(var i in n)n.hasOwnProperty(i)&&(n[i]&&n[i].length?(n[i].forEach((function(t){t.e&&(t.e=r(t.e))})),e=!0):delete n[i]);return e?n:null}(n,i)))return null;var u=function(t,i,u){var o=arguments.length>3&&void 0!==arguments[3]?arguments[3]:null;return n[t]?e(i,n[t],u):r&&r[t]?r[t]:o};return r&&r.a&&n.o?function(t){var r=e(t,n.o,tt);return rt.recomposeSelf(r,u("r",t,d,0)+r.a,u("k",t,m),u("s",t,m),u("t",t,m)).toString()}:function(t){return rt.recomposeSelf(u("o",t,X,null),u("r",t,d,0),u("k",t,m),u("s",t,m),u("t",t,m)).toString()}},"#filter":function(t,n,r,e,i,u,o,a){if(!n.items||!t||!t.length)return null;var l=function(t,n){var r=(t=t.map((function(t){return t&&vt[t[0]]?(n.getElementById(t[1]),vt[t[0]](n.getElementById(t[1]),t[1],n)):null}))).length;return function(n){for(var e=0;e<r;e++)t[e]&&t[e](n[e].value)}}(n.items,a);return l?(t=function(t,n){return t.map((function(t){return t.e=n(t.e),t}))}(t,e),function(n){l(r(n,t,ct))}):null},"#line":it,points:{f:E,i:x},d:et,r:ut,"#size":q,"#radius":j,_:function(t,n){if(Array.isArray(t))for(var r=0;r<t.length;r++)this[t[r]]=n;else this[t]=n}},gt=function(){function t(r){n(this,t),this.list=r,this.length=r.length}return e(t,[{key:"setAttribute",value:function(t,n){for(var r=this.list,e=0;e<this.length;e++)r[e].setAttribute(t,n)}},{key:"removeAttribute",value:function(t){for(var n=this.list,r=0;r<this.length;r++)n[r].removeAttribute(t)}},{key:"style",value:function(t,n){for(var r=this.list,e=0;e<this.length;e++)r[e].style[t]=n}}]),t}(),mt=/-./g,pt=function(t,n){return n.toUpperCase()};function bt(t){return"function"==typeof t?t:y}function wt(t){return t?"function"==typeof t?t:Array.isArray(t)?function(t){var n=arguments.length>1&&void 0!==arguments[1]?arguments[1]:o;if(!Array.isArray(t))return n;switch(t.length){case 1:return c(t[0])||n;case 2:return c(t[0],t[1])||n;case 4:return l(t[0],t[1],t[2],t[3])||n}return n}(t,null):function(t,n){var r=arguments.length>2&&void 0!==arguments[2]?arguments[2]:o;switch(t){case"linear":return o;case"steps":return c(n.steps||1,n.jump||0)||r;case"bezier":case"cubic-bezier":return l(n.x1||0,n.y1||0,n.x2||0,n.y2||0)||r}return r}(t.type,t.value,null):null}function At(t,n,r){var e=arguments.length>3&&void 0!==arguments[3]&&arguments[3],i=n.length-1;if(t<=n[0].t)return e?[0,0,n[0].v]:n[0].v;if(t>=n[i].t)return e?[i,1,n[i].v]:n[i].v;var u,o=n[0],a=null;for(u=1;u<=i;u++){if(!(t>n[u].t)){a=n[u];break}o=n[u]}return null==a?e?[i,1,n[i].v]:n[i].v:o.t===a.t?e?[u,1,a.v]:a.v:(t=(t-o.t)/(a.t-o.t),o.e&&(t=o.e(t)),e?[u,t,r(t,o.v,a.v)]:r(t,o.v,a.v))}function xt(t,n){var r=arguments.length>2&&void 0!==arguments[2]?arguments[2]:null;return t&&t.length?"function"!=typeof n?null:("function"!=typeof r&&(r=null),function(e){var i=At(e,t,n);return null!=i&&r&&(i=r(i)),i}):null}function kt(t,n){return t.t-n.t}function St(n,r,e,i,u){var o,a="@"===e[0],l="#"===e[0],f=dt[e],s=y;switch(a?(o=e.substr(1),e=o.replace(mt,pt)):l&&(e=e.substr(1)),t(f)){case"function":if(s=f(i,u,At,wt,e,a,r,n),l)return s;break;case"string":s=xt(i,bt(f));break;case"object":if((s=xt(i,bt(f.i),f.f))&&"function"==typeof f.u)return f.u(r,s,e,a,n)}return s?function(t,n,r){if(arguments.length>3&&void 0!==arguments[3]&&arguments[3])return t instanceof gt?function(e){return t.style(n,r(e))}:function(e){return t.style[n]=r(e)};if(Array.isArray(n)){var e=n.length;return function(i){var u=r(i);if(null==u)for(var o=0;o<e;o++)t[o].removeAttribute(n);else for(var a=0;a<e;a++)t[a].setAttribute(n,u)}}return function(e){var i=r(e);null==i?t.removeAttribute(n):t.setAttribute(n,i)}}(r,e,s,a):null}function _t(n,r,e,i){if(!i||"object"!==t(i))return null;var u=null,o=null;return Array.isArray(i)?o=function(t){if(!t||!t.length)return null;for(var n=0;n<t.length;n++)t[n].e&&(t[n].e=wt(t[n].e));return t.sort(kt)}(i):(o=i.keys,u=i.data||null),o?St(n,r,e,o,u):null}function Mt(t,n,r){if(!r)return null;var e=[];for(var i in r)if(r.hasOwnProperty(i)){var u=_t(t,n,i,r[i]);u&&e.push(u)}return e.length?e:null}function It(t,n){if(!n.duration||n.duration<0)return null;var r=function(t,n){if(!n)return null;var r=[];if(Array.isArray(n))for(var e=n.length,i=0;i<e;i++){var u=n[i];if(2===u.length){var o=null;if("string"==typeof u[0])o=t.getElementById(u[0]);else if(Array.isArray(u[0])){o=[];for(var a=0;a<u[0].length;a++)if("string"==typeof u[0][a]){var l=t.getElementById(u[0][a]);l&&o.push(l)}o=o.length?1===o.length?o[0]:new gt(o):null}if(o){var f=Mt(t,o,u[1]);f&&(r=r.concat(f))}}}else for(var s in n)if(n.hasOwnProperty(s)){var c=t.getElementById(s);if(c){var v=Mt(t,c,n[s]);v&&(r=r.concat(v))}}return r.length?r:null}(t,n.elements);return r?function(t,n){var r=arguments.length>2&&void 0!==arguments[2]?arguments[2]:1/0,e=arguments.length>3&&void 0!==arguments[3]?arguments[3]:1,i=arguments.length>4&&void 0!==arguments[4]&&arguments[4],u=arguments.length>5&&void 0!==arguments[5]?arguments[5]:1,o=t.length,a=e>0?n:0;i&&r%2==0&&(a=n-a);var l=null;return function(f,s){var c=f%n,v=1+(f-c)/n;s*=e,i&&v%2==0&&(s=-s);var h=!1;if(v>r)c=a,h=!0,-1===u&&(c=e>0?0:n);else if(s<0&&(c=n-c),c===l)return!1;l=c;for(var y=0;y<o;y++)t[y](c);return h}}(r,n.duration,n.iterations||1/0,n.direction||1,!!n.alternate,n.fill||1):null}var Et=function(){function t(r){var e=arguments.length>1&&void 0!==arguments[1]?arguments[1]:{};n(this,t),this._id=0,this._running=!1,this._animations=r,this.direction=e.direction||1,this.speed=e.speed||1,this.fps=e.fps||100,this.offset=e.offset||0}return e(t,[{key:"_start",value:function(){var t=this,n=arguments.length>0&&void 0!==arguments[0]?arguments[0]:0,r=-1/0,e=null,i={},u=function u(o){t._running=!0,null==e&&(e=o);var a=Math.round((o-e+n)*t.speed),l=t.fps?1e3/t.fps:0;if(a>r+l){t.offset=a,r=a;for(var f=t._animations,s=f.length,c=0,v=0;v<s;v++)i[v]?c++:(i[v]=f[v](a,t.direction),i[v]&&c++);if(c===s)return void t._stop()}t._id=window.requestAnimationFrame(u)};this._id=window.requestAnimationFrame(u)}},{key:"_stop",value:function(){this._id&&window.cancelAnimationFrame(this._id),this._running=!1}},{key:"play",value:function(){this._running||this._start(this.offset)}},{key:"stop",value:function(){this._stop(),this.offset=0;var t=this.direction,n=this._animations;requestAnimationFrame((function(){for(var r=0;r<n.length;r++)n[r](0,t)}))}},{key:"restart",value:function(){this._stop(),this.offset=0,this._start()}},{key:"pause",value:function(){this._stop()}},{key:"reverse",value:function(){this.direction=-this.direction}}],[{key:"build",value:function(n){if(!(n=function(t){if(!t||!t.root||!Array.isArray(t.animations))return null;var n=window.document.getElementById(t.root);if(!n)return null;var r=t.animations.map((function(t){return It(n,t)})).filter((function(t){return!!t}));return r.length?{element:n,animations:r,options:t.options||void 0}:null}(n)))return null;var r=n.element,e=n.options||{},i=new t(n.animations,n.options);return function(t,n,r){var e=arguments.length>3&&void 0!==arguments[3]?arguments[3]:null;if("click"===r){return void n.addEventListener("click",(function r(){n.removeEventListener("click",r),t.play()}))}if("hover"===r)return n.addEventListener("mouseenter",(function(){return t.play()})),void n.addEventListener("mouseleave","freeze"===e?function(){return t.pause()}:function(){return t.stop()});t.play()}(i,r,e.start,e.hover),i}}]),t}();return function(){for(var t=0,n=["ms","moz","webkit","o"],r=0;r<n.length&&!window.requestAnimationFrame;++r)window.requestAnimationFrame=window[n[r]+"RequestAnimationFrame"],window.cancelAnimationFrame=window[n[r]+"CancelAnimationFrame"]||window[n[r]+"CancelRequestAnimationFrame"];window.requestAnimationFrame||(window.requestAnimationFrame=function(n){var r=Date.now(),e=Math.max(0,16-(r-t)),i=window.setTimeout((function(){n(r+e)}),e);return t=r+e,i},window.cancelAnimationFrame=window.clearTimeout)}(),Et}));
__SVGATOR_PLAYER__.build({"root":"ewgcft8wg1go1","animations":[{"duration":2000,"direction":-1,"iterations":0,"fill":1,"alternate":false,"elements":{"ewgcft8wg1go76":{"transform":{"data":{"o":{"x":162.452500005,"y":74.52907817,"type":"corner"},"t":{"x":-162.49211624500003,"y":-74.35520993}},"keys":{"r":[{"t":0,"v":0,"e":[0.455,0.03,0.515,0.955]},{"t":1000,"v":6.82879674714319},{"t":2000,"v":0,"e":[0.455,0.03,0.515,0.955]}]}}}}}],"options":{"start":"load","hover":"freeze"}})]]></script></svg>