<svg xmlns="http://www.w3.org/2000/svg" width="73" height="8" viewBox="0 0 73 8">
    <path fill="#01BFA5" fill-rule="nonzero" d="M71.565.242a.8.8 0 0 0-.242.588v3.406c0 .415-.023.732-.07.95-.046.22-.156.33-.329.33a.826.826 0 0 1-.355-.113 15 15 0 0 1-.546-.303L62.085.26a1.672 1.672 0 0 0-.424-.19 1.666 1.666 0 0 0-.477-.07c-.474 0-.87.161-1.187.484-.318.323-.477.72-.477 1.193v5.031a.8.8 0 0 0 .243.588.804.804 0 0 0 .59.242c.23 0 .427-.08.589-.242a.8.8 0 0 0 .242-.588V3.302c0-.415.023-.732.07-.95.046-.22.155-.33.329-.33a.82.82 0 0 1 .355.113c.144.075.326.176.546.303l7.938 4.84a1.673 1.673 0 0 0 .901.26c.473 0 .87-.161 1.187-.484.318-.323.477-.72.477-1.193V.83a.8.8 0 0 0-.243-.588.803.803 0 0 0-.59-.242.803.803 0 0 0-.589.242zM46.892 0c-.497 0-.942.115-1.334.346a3.45 3.45 0 0 0-1.006.89 4.038 4.038 0 0 0-.632 1.21 4.258 4.258 0 0 0-.217 1.323c0 .427.07.859.208 1.297.139.438.338.835.598 1.193.26.357.575.654.945.89s.791.366 1.265.39h7.903c.497 0 .941-.116 1.334-.347.393-.23.728-.527 1.005-.89.278-.363.489-.767.633-1.21.144-.444.217-.885.217-1.323 0-.427-.07-.859-.208-1.297a4.132 4.132 0 0 0-.598-1.193 3.466 3.466 0 0 0-.945-.89A2.531 2.531 0 0 0 54.795 0h-7.903zm-.615 5.662a1.813 1.813 0 0 1-.59-.527 1.851 1.851 0 0 1-.294-.683 3.347 3.347 0 0 1-.078-.683c0-.207.026-.435.078-.683a1.85 1.85 0 0 1 .294-.683 1.81 1.81 0 0 1 .59-.527c.248-.144.575-.216.979-.216h7.002c.393 0 .716.072.97.216.254.144.454.32.598.527.145.208.243.435.295.683.052.248.078.476.078.683 0 .208-.026.435-.078.683-.052.248-.15.475-.295.683a1.783 1.783 0 0 1-.598.527c-.254.144-.577.216-.97.216h-7.002c-.404 0-.73-.072-.98-.216zM40.374.242a.8.8 0 0 0-.243.588v5.878a.8.8 0 0 0 .243.588.804.804 0 0 0 .59.242c.23 0 .427-.08.588-.242a.8.8 0 0 0 .243-.588V.83a.8.8 0 0 0-.243-.588.803.803 0 0 0-.589-.242.803.803 0 0 0-.59.242zm-3.922 0c-.462.334-.945.663-1.447.986-.503.322-1.029.61-1.577.864-.55.254-1.112.458-1.69.614a6.767 6.767 0 0 1-1.768.233h-.852V.83a.8.8 0 0 0-.243-.587.803.803 0 0 0-.59-.242c-.219 0-.41.08-.571.242a.8.8 0 0 0-.243.588v5.878a.8.8 0 0 0 .243.588.804.804 0 0 0 .59.242c.219 0 .41-.08.571-.242a.8.8 0 0 0 .243-.588V4.6h.852c.6 0 1.19.075 1.768.225.578.15 1.138.351 1.68.605a13.34 13.34 0 0 1 1.57.864c.502.323.99.657 1.464 1.003.196.161.393.242.59.242.23 0 .427-.08.588-.242a.8.8 0 0 0 .243-.588.678.678 0 0 0-.139-.423 1.572 1.572 0 0 0-.329-.32c-.3-.23-.59-.447-.866-.648-.278-.202-.555-.39-.832-.562-.278-.173-.564-.34-.858-.502-.295-.161-.61-.323-.945-.484.335-.161.65-.323.945-.484.294-.161.58-.329.858-.501.277-.173.554-.36.832-.562.277-.202.566-.418.866-.649.127-.092.237-.198.33-.32a.678.678 0 0 0 .138-.423.8.8 0 0 0-.243-.588.803.803 0 0 0-.589-.242c-.196 0-.393.08-.59.242zM17.717 0c-.497 0-.941.115-1.334.346-.393.23-.728.527-1.005.89a4.03 4.03 0 0 0-.633 1.21 4.248 4.248 0 0 0-.216 1.323c0 .427.069.865.208 1.314.138.45.337.856.597 1.22.26.362.575.659.945.89.37.23.791.345 1.265.345h6.953c.23 0 .428-.08.59-.242a.8.8 0 0 0 .242-.588.8.8 0 0 0-.243-.588.803.803 0 0 0-.589-.242h-6.398c-.405 0-.731-.072-.98-.216a1.81 1.81 0 0 1-.589-.527 1.848 1.848 0 0 1-.294-.683 3.347 3.347 0 0 1-.078-.683c0-.207.026-.435.078-.683.052-.248.15-.475.294-.683.145-.207.341-.383.59-.527.248-.144.574-.216.979-.216h6.398c.23 0 .428-.08.59-.242a.8.8 0 0 0 .242-.588.8.8 0 0 0-.243-.588.803.803 0 0 0-.589-.242h-6.78zM.832 0a.803.803 0 0 0-.59.242A.8.8 0 0 0 0 .83a.8.8 0 0 0 .243.588.803.803 0 0 0 .589.242h5.13V6.81c0 .202.08.374.242.515a.864.864 0 0 0 .59.212c.23 0 .427-.07.589-.212a.66.66 0 0 0 .243-.515V1.66h5.199a.859.859 0 0 0 .537-.268.78.78 0 0 0 .225-.562.8.8 0 0 0-.242-.588.803.803 0 0 0-.59-.242H.833zm17.41 2.94a.735.735 0 0 0-.556.241.824.824 0 0 0-.228.588c0 .23.076.427.228.588a.735.735 0 0 0 .555.242h5.657c.218 0 .403-.08.555-.242a.824.824 0 0 0 .23-.588.824.824 0 0 0-.23-.588.735.735 0 0 0-.555-.242h-5.657z"/>
</svg>
