<?xml version="1.0" encoding="UTF-8"?>
<svg width="16px" height="16px" viewBox="0 0 16 16" version="1.1" xmlns="http://www.w3.org/2000/svg" xmlns:xlink="http://www.w3.org/1999/xlink">
    <!-- Generator: Sketch 61.2 (89653) - https://sketch.com -->
    <title>scan</title>
    <desc>Created with Sketch.</desc>
    <g id="Page-1" stroke="none" stroke-width="1" fill="none" fill-rule="evenodd">
        <g id="Choose-Vehicle" transform="translate(-358.000000, -144.000000)" fill="#66718A">
            <g id="Group" transform="translate(16.000000, 128.000000)">
                <path d="M346.666394,27.3327858 L346.666394,31.9999804 L342,31.9999804 L342,27.3327858 L346.666394,27.3327858 Z M358,28.6671842 L358,31.99998 L356.666402,31.99998 L356.666402,29.9999825 L354.666404,29.9999825 L354.666404,31.99998 L353.333586,31.99998 L353.333586,28.6671842 L358,28.6671842 Z M354.666404,21.9999725 L354.666404,24.6671692 L353.333586,24.6671692 L353.333586,23.3335708 L351.999993,23.3335708 L351.999993,25.9999725 L349.333591,25.9999725 L349.333591,27.3327858 L351.999993,27.3327858 L351.999993,31.9999725 L350.666389,31.9999725 L350.666389,28.6671842 L347.999993,28.6671842 L347.999993,24.6671892 L350.666389,24.6671892 L350.666389,21.9999725 L354.666404,21.9999725 Z M349.333591,29.9999825 L349.333591,31.9999825 L347.999993,31.9999825 L347.999993,29.9999825 L349.333591,29.9999825 Z M345.333598,28.6671842 L343.333598,28.6671842 L343.333598,30.6671842 L345.333598,30.6671842 L345.333598,28.6671842 Z M357.99998,21.9999925 L357.99998,27.3328058 L353.333586,27.3328058 L353.333586,25.9999925 L356.666382,25.9999925 L356.666382,21.9999925 L357.99998,21.9999925 Z M346.666397,24.6671892 L346.666397,26.0000075 L344.666397,26.0000075 L344.666397,24.6671892 L346.666397,24.6671892 Z M349.333591,18.6663967 L349.333591,23.3335908 L343.333598,23.3335908 L343.333598,25.9999875 L342,25.9999875 L342,21.9999925 L348,21.9999925 L348,18.6663967 L349.333591,18.6663967 Z M346.666394,16 L346.666394,20.6663942 L342,20.6663942 L342,16 L346.666394,16 Z M357.99998,16 L357.99998,20.6663942 L353.333586,20.6663942 L353.333586,16 L357.99998,16 Z M351.999993,16 L351.999993,20.6663942 L350.666389,20.6663942 L350.666389,17.3335983 L347.999993,17.3335983 L347.999993,16 L351.999993,16 Z M345.333598,17.3335983 L343.333598,17.3335983 L343.333598,19.3335983 L345.333598,19.3335983 L345.333598,17.3335983 Z M356.666384,17.3335983 L354.666384,17.3335983 L354.666384,19.3335983 L356.666384,19.3335983 L356.666384,17.3335983 Z" id="scan"></path>
            </g>
        </g>
    </g>
</svg>